<?xml version="1.0" encoding="UTF-8"?>
<svg version="1.1" xmlns="http://www.w3.org/2000/svg" width="512" height="512">
<path d="M0 0 C1.01201477 0.00054382 2.02402954 0.00108765 3.06671143 0.00164795 C19.59887291 0.04238923 35.523992 0.95817716 51.75 4.375 C52.78125 4.58930664 53.8125 4.80361328 54.875 5.02441406 C101.10680927 14.94980561 143.72188765 37.60106665 177.75 70.375 C178.7390332 71.32318604 178.7390332 71.32318604 179.74804688 72.29052734 C189.23630305 81.43497479 197.9762044 90.73234009 205.75 101.375 C206.60806152 102.52605017 207.46613451 103.67709177 208.32421875 104.828125 C214.36236829 113.01930614 219.72095521 121.53304105 224.75 130.375 C225.11448242 131.00680176 225.47896484 131.63860352 225.85449219 132.28955078 C240.78473018 158.37464001 250.26385054 187.71085114 254.75 217.375 C254.92660156 218.49745117 255.10320312 219.61990234 255.28515625 220.77636719 C256.9420586 232.38947743 257.14873513 243.90679945 257.125 255.625 C257.12418427 257.14302216 257.12418427 257.14302216 257.12335205 258.69171143 C257.08261077 275.22387291 256.16682284 291.148992 252.75 307.375 C252.42854004 308.921875 252.42854004 308.921875 252.10058594 310.5 C242.17519439 356.73180927 219.52393335 399.34688765 186.75 433.375 C186.11787598 434.03435547 185.48575195 434.69371094 184.83447266 435.37304688 C175.69002521 444.86130305 166.39265991 453.6012044 155.75 461.375 C154.59894983 462.23306152 153.44790823 463.09113451 152.296875 463.94921875 C144.10569386 469.98736829 135.59195895 475.34595521 126.75 480.375 C126.11819824 480.73948242 125.48639648 481.10396484 124.83544922 481.47949219 C98.75035999 496.40973018 69.41414886 505.88885054 39.75 510.375 C38.62754883 510.55160156 37.50509766 510.72820312 36.34863281 510.91015625 C24.73552257 512.5670586 13.21820055 512.77373513 1.5 512.75 C-0.01802216 512.74918427 -0.01802216 512.74918427 -1.56671143 512.74835205 C-18.09887291 512.70761077 -34.023992 511.79182284 -50.25 508.375 C-51.796875 508.05354004 -51.796875 508.05354004 -53.375 507.72558594 C-99.60680927 497.80019439 -142.22188765 475.14893335 -176.25 442.375 C-176.90935547 441.74287598 -177.56871094 441.11075195 -178.24804688 440.45947266 C-187.73630305 431.31502521 -196.4762044 422.01765991 -204.25 411.375 C-205.10806152 410.22394983 -205.96613451 409.07290823 -206.82421875 407.921875 C-212.86236829 399.73069386 -218.22095521 391.21695895 -223.25 382.375 C-223.61448242 381.74319824 -223.97896484 381.11139648 -224.35449219 380.46044922 C-239.28473018 354.37535999 -248.76385054 325.03914886 -253.25 295.375 C-253.51490234 293.69132324 -253.51490234 293.69132324 -253.78515625 291.97363281 C-255.4420586 280.36052257 -255.64873513 268.84320055 -255.625 257.125 C-255.62445618 256.11298523 -255.62391235 255.10097046 -255.62335205 254.05828857 C-255.58261077 237.52612709 -254.66682284 221.601008 -251.25 205.375 C-251.03569336 204.34375 -250.82138672 203.3125 -250.60058594 202.25 C-240.67519439 156.01819073 -218.02393335 113.40311235 -185.25 79.375 C-184.61787598 78.71564453 -183.98575195 78.05628906 -183.33447266 77.37695312 C-174.19002521 67.88869695 -164.89265991 59.1487956 -154.25 51.375 C-153.09894983 50.51693848 -151.94790823 49.65886549 -150.796875 48.80078125 C-142.60569386 42.76263171 -134.09195895 37.40404479 -125.25 32.375 C-124.61819824 32.01051758 -123.98639648 31.64603516 -123.33544922 31.27050781 C-97.25035999 16.34026982 -67.91414886 6.86114946 -38.25 2.375 C-37.12754883 2.19839844 -36.00509766 2.02179687 -34.84863281 1.83984375 C-23.23552257 0.1829414 -11.71820055 -0.02373513 0 0 Z " fill="#209CEE" transform="translate(255.25,-0.375)"/>
<path d="M0 0 C0 22.77 0 45.54 0 69 C-32.10386462 72.43969978 -32.10386462 72.43969978 -44.3203125 73.31640625 C-45.69452484 73.41894303 -47.06869984 73.52198111 -48.44284058 73.62547302 C-51.9632755 73.88975232 -55.48403122 74.14939764 -59.00494385 74.40722656 C-65.3396667 74.87118323 -71.67395732 75.34075377 -78.0078125 75.81640625 C-78.67742256 75.866404 -79.34703262 75.91640175 -80.0369339 75.96791458 C-89.15697272 76.65227884 -98.23250286 77.48722201 -107.30419922 78.64819336 C-111.51870587 79.04937608 -115.76644193 79 -120 79 C-120 101.11 -120 123.22 -120 146 C-112.61625 145.38125 -105.2325 144.7625 -97.625 144.125 C-95.3351416 143.93437988 -93.0452832 143.74375977 -90.68603516 143.54736328 C-80.84511339 142.72006875 -71.02533904 141.81871458 -61.21488953 140.68463135 C-54.13618698 139.87679749 -47.04638888 139.34405595 -39.9375 138.875 C-38.09768555 138.74544922 -38.09768555 138.74544922 -36.22070312 138.61328125 C-29.7963593 138.17784966 -23.43736506 137.95216125 -17 138 C-16.97687411 146.8488239 -16.95908366 155.69763747 -16.94818783 164.54648495 C-16.94295954 168.65494285 -16.93586287 172.76338014 -16.92456055 176.87182617 C-16.91372975 180.83346828 -16.90772276 184.79509052 -16.90512276 188.75674629 C-16.90326886 190.27148311 -16.8996489 191.78621879 -16.89426994 193.30094719 C-16.88705693 195.41541813 -16.88600917 197.52980594 -16.88647461 199.64428711 C-16.884254 200.85007919 -16.88203339 202.05587128 -16.87974548 203.29820251 C-17 206 -17 206 -18 207 C-20.293415 207.26257296 -22.59430601 207.45995401 -24.89624023 207.63256836 C-25.61849792 207.68802322 -26.34075562 207.74347809 -27.0848999 207.8006134 C-28.66165869 207.92104801 -30.23858249 208.03933646 -31.8156414 208.15577507 C-34.32876134 208.34133284 -36.84141456 208.53234478 -39.35401917 208.7247467 C-43.80697864 209.06479893 -48.26029476 209.39990387 -52.71374512 209.73345947 C-59.78057721 210.26284637 -66.84706729 210.79658056 -73.91313362 211.336092 C-76.35737383 211.52156021 -78.80188375 211.70307832 -81.2464447 211.88426208 C-89.83226602 212.53148224 -98.38306667 213.31153602 -106.92988491 214.36374569 C-111.37634895 214.89376249 -115.4730963 215 -120 215 C-120 264.83 -120 314.66 -120 366 C-122.42170489 367.21085244 -124.32164966 367.31951721 -127.02197266 367.57250977 C-128.5959935 367.72255211 -128.5959935 367.72255211 -130.20181274 367.87562561 C-131.34435516 367.97983322 -132.48689758 368.08404083 -133.6640625 368.19140625 C-134.8440683 368.30097153 -136.0240741 368.4105368 -137.23983765 368.52342224 C-139.74986619 368.75496023 -142.26009736 368.98431018 -144.77050781 369.21166992 C-148.56136074 369.55670765 -152.35096011 369.91366513 -156.140625 370.27148438 C-158.58587002 370.49552935 -161.03118082 370.71885776 -163.4765625 370.94140625 C-164.59076569 371.04763809 -165.70496887 371.15386993 -166.85293579 371.26332092 C-175.67251419 372.04468688 -184.044372 372 -193 372 C-193 254.85 -193 137.7 -193 17 C-175.86878066 14.71583742 -175.86878066 14.71583742 -168.9375 14.4375 C-164.21848174 14.23118013 -159.6603596 13.78601018 -155 13 C-152.668227 12.84865896 -150.33444608 12.72713202 -148 12.625 C-140.09514377 12.2212052 -132.24602952 11.4481074 -124.375 10.625 C-112.42891445 9.38252173 -100.4775672 8.38620505 -88.5 7.5 C-74.23672862 6.44236202 -60.01983796 5.16507466 -45.79296875 3.69140625 C-36.72548915 2.75463523 -27.64484635 1.9805939 -18.56103516 1.22167969 C-14.88221949 0.90324645 -11.20706932 0.5467492 -7.53198242 0.18798828 C-5.02743329 0.0020368 -2.51144268 0 0 0 Z " fill="#209CEE" transform="translate(329,58)"/>
<path d="M0 0 C7.27776291 -0.403466 12.31840943 1.88642149 18.67689514 5.22764587 C19.68139206 5.73578323 20.68588898 6.24392059 21.7208252 6.76745605 C24.90228867 8.38270206 28.06857537 10.02549458 31.23548889 11.66905212 C33.39668293 12.77045944 35.55878459 13.87008772 37.72181702 14.96788025 C41.6518884 16.9702528 45.5791642 18.97757083 49.49549866 21.00669861 C50.28030106 21.41307053 51.06510345 21.81944244 51.87368774 22.23812866 C53.67298889 23.23155212 53.67298889 23.23155212 54.67298889 24.23155212 C54.77328746 26.66012248 54.80917314 29.06026825 54.80238342 31.48936462 C54.8050119 32.62834198 54.8050119 32.62834198 54.80769348 33.79032898 C54.81211219 36.31242628 54.80917395 38.83445405 54.80580139 41.35655212 C54.80647443 43.10150669 54.80744445 44.84646116 54.80870056 46.59141541 C54.81017756 50.25337108 54.80802292 53.9153024 54.80335999 57.57725525 C54.79766269 62.28199705 54.80094169 66.98668181 54.80693245 71.69142151 C54.81053801 75.29609104 54.8093995 78.90074694 54.80680466 82.50541687 C54.80613537 84.24064643 54.80696386 85.97587721 54.80928421 87.71110535 C54.81181066 90.132017 54.80797027 92.55283499 54.80238342 94.97373962 C54.80440765 95.69793091 54.80643188 96.42212219 54.80851746 97.16825867 C54.78725156 102.11728946 54.78725156 102.11728946 53.67298889 103.23155212 C51.08336525 103.49992083 48.511795 103.70853624 45.91517639 103.87998962 C45.11351044 103.93696014 44.31184448 103.99393066 43.48588562 104.05262756 C41.75028221 104.17596455 40.01454715 104.29745948 38.27870178 104.41734314 C24.89056992 105.34499644 11.52461705 106.37024136 -1.82701111 107.73155212 C-14.12756545 108.97439057 -26.43685711 109.98878942 -38.76451111 110.91905212 C-40.07137878 111.0191156 -40.07137878 111.0191156 -41.40464783 111.12120056 C-43.89804867 111.31129105 -46.39174061 111.49687021 -48.88560486 111.68077087 C-49.62076828 111.7368602 -50.3559317 111.79294952 -51.1133728 111.85073853 C-51.81478897 111.90123856 -52.51620514 111.95173859 -53.23887634 112.00376892 C-53.8382048 112.04801498 -54.43753326 112.09226105 -55.05502319 112.1378479 C-58.4762531 112.27895063 -61.90287267 112.23155212 -65.32701111 112.23155212 C-65.32701111 122.13155212 -65.32701111 132.03155212 -65.32701111 142.23155212 C-63.42951111 141.94280212 -61.53201111 141.65405212 -59.57701111 141.35655212 C-51.83516545 140.27524331 -44.05821701 139.67684853 -36.26451111 139.10655212 C-34.52766052 138.97530945 -34.52766052 138.97530945 -32.75572205 138.84141541 C-30.43095699 138.67854421 -28.10424299 138.54158183 -25.776474 138.42955017 C-22.36241132 138.27931343 -22.36241132 138.27931343 -19.14122009 137.7933197 C-6.53278931 136.63267545 3.68428736 143.45725701 14.48548889 149.16905212 C16.53170324 150.22303485 18.57922139 151.27449041 20.62806702 152.323349 C35.32511318 159.88367641 35.32511318 159.88367641 36.67298889 161.23155212 C36.76797535 163.66551231 36.79857306 166.07098165 36.78651428 168.50523376 C36.78666031 169.26615829 36.78680634 170.02708282 36.78695679 170.81106567 C36.78625751 173.33797511 36.77846444 175.86481174 36.77064514 178.39170837 C36.76878101 180.13905802 36.76735709 181.88640819 36.76635742 183.63375854 C36.76253182 188.24187147 36.75270118 192.84995307 36.74165344 197.45805359 C36.73144023 202.15663733 36.72686 206.85522612 36.72181702 211.55381775 C36.71107895 220.779743 36.69400202 230.00564496 36.67298889 239.23155212 C34.36999014 240.3830515 32.68710903 240.51813703 30.12367249 240.75645447 C29.17044098 240.84689529 28.21720947 240.93733612 27.23509216 241.03051758 C26.19108246 241.12521835 25.14707275 241.21991913 24.07142639 241.31748962 C22.98286346 241.41907883 21.89430054 241.52066803 20.77275085 241.62533569 C17.19824503 241.95709628 13.62317814 242.28224479 10.04798889 242.60655212 C8.23137756 242.7731282 8.23137756 242.7731282 6.37806702 242.94306946 C-9.84784713 244.42975596 -26.07850566 245.82780376 -42.32701111 247.04405212 C-43.16258545 247.10703491 -43.99815979 247.1700177 -44.85905457 247.23490906 C-51.69252761 247.74615798 -58.46854847 248.23155212 -65.32701111 248.23155212 C-65.32701111 298.06155212 -65.32701111 347.89155212 -65.32701111 399.23155212 C-69.35006693 400.23731608 -73.15035667 400.52903222 -77.26451111 400.73155212 C-82.50257071 400.9557628 -82.50257071 400.9557628 -87.68101501 401.71788025 C-90.63323289 402.2909995 -93.51024213 402.52852176 -96.51060486 402.73155212 C-97.68558533 402.81405212 -98.8605658 402.89655212 -100.07115173 402.98155212 C-101.28996033 403.06405212 -102.50876892 403.14655212 -103.76451111 403.23155212 C-106.18005643 403.39557854 -108.59542995 403.56215903 -111.01060486 403.73155212 C-112.07851257 403.80373962 -113.14642029 403.87592712 -114.24668884 403.95030212 C-117.311863 404.23016902 -120.29498549 404.70933804 -123.32701111 405.23155212 C-125.88701436 405.45051756 -128.45003787 405.63581332 -131.01451111 405.79405212 C-132.96937439 405.91973572 -132.96937439 405.91973572 -134.96372986 406.04795837 C-163.03936479 407.22929664 -158.17184103 402.30913717 -196.32701111 383.23155212 C-196.32701111 262.78155212 -196.32701111 142.33155212 -196.32701111 18.23155212 C-192.34476808 17.23599137 -188.45831127 16.71837109 -184.38951111 16.29405212 C-183.1846405 16.16655579 -183.1846405 16.16655579 -181.95542908 16.03648376 C-172.69353125 15.10101662 -163.40617383 14.51030615 -154.11631775 13.92906189 C-152.91998718 13.8522821 -151.72365662 13.77550232 -150.49107361 13.69639587 C-148.88933289 13.59766174 -148.88933289 13.59766174 -147.25523376 13.49693298 C-144.54377373 13.25119703 -141.98953995 12.7816523 -139.32701111 12.23155212 C-137.99744566 12.10764882 -136.66478618 12.0126743 -135.33091736 11.95030212 C-134.60710876 11.91291931 -133.88330017 11.8755365 -133.13755798 11.83702087 C-132.39570251 11.80221619 -131.65384705 11.7674115 -130.88951111 11.73155212 C-129.4114916 11.6618464 -127.93361713 11.58898576 -126.45591736 11.51280212 C-125.48247375 11.46736267 -125.48247375 11.46736267 -124.48936462 11.42100525 C-122.22625125 11.25389941 -122.22625125 11.25389941 -119.61509705 10.75669861 C-115.61177129 10.11731981 -111.63081458 9.824975 -107.58872986 9.54795837 C-105.86281529 9.42365258 -104.13690394 9.29930211 -102.41099548 9.1749115 C-99.73066104 8.98510814 -97.05024544 8.79654921 -94.36973572 8.60923767 C-84.78634419 7.93573301 -75.25228448 7.15976238 -65.71853638 5.96984863 C-56.10029755 4.79661437 -46.42911482 4.22298629 -36.76548767 3.55430603 C-34.2232529 3.37701988 -31.68130446 3.19630649 -29.13951111 3.01280212 C-28.31426941 2.95326355 -27.48902771 2.89372498 -26.63877869 2.8323822 C-19.83285113 2.31815656 -13.08298534 1.52473377 -6.31919861 0.61631775 C-4.21396423 0.39702975 -2.10624564 0.20958458 0 0 Z M-11.46763611 6.14170837 C-20.17707855 7.14995664 -28.88970619 7.86437864 -37.63365173 8.49278259 C-51.39834285 9.48579888 -65.12251003 10.65810173 -78.84776306 12.10191345 C-91.33679676 13.3889287 -103.8507876 14.31678823 -116.37193298 15.229599 C-117.18054276 15.28928864 -117.98915253 15.34897827 -118.82226562 15.41047668 C-120.33255116 15.52168277 -121.84299025 15.63083206 -123.35360718 15.73744202 C-127.7132905 16.05852895 -132.00315715 16.59725703 -136.32701111 17.23155212 C-137.72239414 17.34852493 -139.11971901 17.44632373 -140.51841736 17.51280212 C-141.23578064 17.55018494 -141.95314392 17.58756775 -142.69224548 17.62608337 C-144.16098652 17.69658294 -145.62973659 17.76689445 -147.09849548 17.83702087 C-151.2517137 18.05384055 -155.22064633 18.54535696 -159.32701111 19.23155212 C-162.6378027 19.44725002 -165.94389024 19.61602034 -169.25865173 19.74913025 C-176.74249438 20.11878883 -183.79253544 21.22695537 -191.32701111 22.23155212 C-191.32701111 139.38155212 -191.32701111 256.53155212 -191.32701111 377.23155212 C-181.29590885 377.23155212 -171.71957627 377.11838309 -161.80357361 376.17295837 C-160.01347366 376.01004555 -160.01347366 376.01004555 -158.18721008 375.84384155 C-155.70159069 375.61609729 -153.21628675 375.38488439 -150.73130798 375.1502533 C-146.91240473 374.7903192 -143.09251374 374.44276874 -139.27232361 374.0967865 C-136.84517407 373.87289369 -134.41808811 373.64831025 -131.99107361 373.42295837 C-130.84853119 373.31875076 -129.70598877 373.21454315 -128.52882385 373.10717773 C-126.95480301 372.95713539 -126.95480301 372.95713539 -125.34898376 372.80406189 C-124.42461517 372.71745804 -123.50024658 372.63085419 -122.54786682 372.54162598 C-120.29219011 372.34715745 -120.29219011 372.34715745 -118.32701111 371.23155212 C-118.32701111 321.40155212 -118.32701111 271.57155212 -118.32701111 220.23155212 C-112.05701111 219.90155212 -105.78701111 219.57155212 -99.32701111 219.23155212 C-93.73885032 218.65013983 -93.73885032 218.65013983 -88.15324402 218.0450592 C-80.28643582 217.1710793 -72.39811856 216.57672369 -64.50669861 215.97764587 C-63.80679054 215.92425678 -63.10688248 215.87086769 -62.38576508 215.81586075 C-55.82512339 215.31572589 -49.26395067 214.82274878 -42.70249939 214.33335876 C-39.07527084 214.0625528 -35.44839655 213.78736091 -31.82170486 213.50946236 C-30.44944958 213.40525335 -29.07705994 213.30279809 -27.70454025 213.20213127 C-25.80739562 213.06296571 -23.91069357 212.91780523 -22.01402283 212.77232361 C-20.93659821 212.69175217 -19.85917358 212.61118073 -18.74909973 212.52816772 C-16.38063499 212.49047977 -16.38063499 212.49047977 -15.32701111 211.23155212 C-15.2327937 209.11473895 -15.2095835 206.99474454 -15.21348572 204.87583923 C-15.21326668 203.880756 -15.21326668 203.880756 -15.21304321 202.86557007 C-15.2137423 200.66331257 -15.22153446 198.46113868 -15.22935486 196.25889587 C-15.23121905 194.73574876 -15.23264295 193.21260105 -15.23364258 191.68945312 C-15.23746765 187.67317561 -15.24729783 183.65693405 -15.25834656 179.64067078 C-15.26856092 175.54531846 -15.27314025 171.44996037 -15.27818298 167.354599 C-15.28892011 159.31356685 -15.30599639 151.27256395 -15.32701111 143.23155212 C-21.20945946 143.180498 -27.0024036 143.3318138 -32.86607361 143.78233337 C-34.05274879 143.86997955 -34.05274879 143.86997955 -35.26339722 143.95939636 C-37.82658464 144.15031873 -40.38930485 144.34678324 -42.95201111 144.54405212 C-43.83428375 144.61091217 -44.7165564 144.67777222 -45.62556458 144.74665833 C-59.67224656 145.81298342 -73.69094605 147.06299222 -87.70591736 148.48545837 C-97.90515248 149.48394833 -108.11754362 150.34377234 -118.32701111 151.23155212 C-118.32701111 129.12155212 -118.32701111 107.01155212 -118.32701111 84.23155212 C-107.93201111 83.73655212 -107.93201111 83.73655212 -97.32701111 83.23155212 C-90.57638255 82.53748212 -90.57638255 82.53748212 -83.8323822 81.79795837 C-76.91220307 81.05424873 -69.97334151 80.54119868 -63.03404236 80.01280212 C-62.35259029 79.96065552 -61.67113823 79.90850891 -60.9690361 79.8547821 C-54.59115138 79.36706447 -48.21270033 78.88693611 -41.83409119 78.40879822 C-38.30409389 78.14393037 -34.77440751 77.87517728 -31.24486351 77.6043396 C-29.30020702 77.45629094 -27.35521726 77.31263974 -25.41021729 77.16917419 C-16.31373754 76.47135587 -7.40752548 75.36661642 1.67298889 74.23155212 C1.67298889 51.46155212 1.67298889 28.69155212 1.67298889 5.23155212 C-2.792926 5.23155212 -7.05026409 5.60876791 -11.46763611 6.14170837 Z " fill="#FCFDFE" transform="translate(327.32701110839844,52.76844787597656)"/>
</svg>
